<?xml version="1.0" encoding="UTF-8" standalone="no"?>
<svg
   xmlns:dc="http://purl.org/dc/elements/1.1/"
   xmlns:cc="http://creativecommons.org/ns#"
   xmlns:rdf="http://www.w3.org/1999/02/22-rdf-syntax-ns#"
   xmlns:svg="http://www.w3.org/2000/svg"
   xmlns="http://www.w3.org/2000/svg"
   xmlns:sodipodi="http://sodipodi.sourceforge.net/DTD/sodipodi-0.dtd"
   xmlns:inkscape="http://www.inkscape.org/namespaces/inkscape"
   inkscape:version="1.0 (4035a4fb49, 2020-05-01)"
   sodipodi:docname="LOGO.svg"
   id="svg8"
   version="1.1"
   viewBox="0 0 80.000282 80.00029"
   height="80.00029mm"
   width="80.000282mm">
  <defs
     id="defs2" />
  <sodipodi:namedview
     fit-margin-bottom="0"
     fit-margin-right="0"
     fit-margin-left="0"
     fit-margin-top="0"
     inkscape:window-maximized="1"
     inkscape:window-y="-8"
     inkscape:window-x="-8"
     inkscape:window-height="1017"
     inkscape:window-width="1920"
     inkscape:guide-bbox="true"
     showguides="true"
     inkscape:lockguides="true"
     inkscape:snap-smooth-nodes="true"
     inkscape:snap-nodes="true"
     inkscape:object-paths="true"
     showgrid="false"
     inkscape:document-rotation="0"
     inkscape:current-layer="layer1"
     inkscape:document-units="mm"
     inkscape:cy="104.29841"
     inkscape:cx="-56.132416"
     inkscape:zoom="1.4"
     inkscape:pageshadow="2"
     inkscape:pageopacity="0.0"
     borderopacity="1.0"
     bordercolor="#666666"
     pagecolor="#ffffff"
     id="base" />
  <metadata
     id="metadata5">
    <rdf:RDF>
      <cc:Work
         rdf:about="">
        <dc:format>image/svg+xml</dc:format>
        <dc:type
           rdf:resource="http://purl.org/dc/dcmitype/StillImage" />
        <dc:title></dc:title>
      </cc:Work>
    </rdf:RDF>
  </metadata>
  <g
     transform="translate(-94.999886,-53.999804)"
     id="layer1"
     inkscape:groupmode="layer"
     inkscape:label="Layer 1">
    <path
       transform="scale(0.26458333)"
       d="m 359.05469,204.09375 v 132.2832 h 59.55859 a 72.590366,66.141373 0 0 0 0.13477,0 72.590366,66.141373 0 0 0 72.58984,-66.14062 72.590366,66.141373 0 0 0 -72.58984,-66.14063 72.590366,66.141373 0 0 0 -0.13477,0 v -0.002 z m 170.08008,0 v 302.36328 h 44.09375 v -132.2832 h 44.09375 v 132.2832 h 44.0957 V 204.09375 h -44.0957 V 336.37891 H 573.22852 V 204.09375 Z M 359.05469,374.17383 v 132.2832 h 59.55859 a 72.590366,66.141373 0 0 0 0.13477,0 72.590366,66.141373 0 0 0 72.58984,-66.14258 72.590366,66.141373 0 0 0 -72.58984,-66.14062 72.590366,66.141373 0 0 0 -0.13477,0 z"
       style="fill:#fd3132;fill-opacity:1;stroke-width:0.721243"
       id="path866" />
  </g>
</svg>
